{"glyphs":{"0":{"ha":694,"x_min":81,"x_max":607,"o":"m 356 950 q 529 860 460 940 q 589 722 571 808 q 607 571 607 636 q 556 279 607 435 q 401 32 506 124 q 304 6 360 -1 q 120 173 160 19 q 86 450 81 326 q 102 666 83 522 q 200 826 121 810 q 240 783 243 826 q 225 736 238 758 q 206 630 210 700 q 201 519 201 560 q 218 338 200 440 q 293 178 236 236 q 414 376 354 232 q 478 604 474 519 q 424 759 475 682 q 297 860 372 836 q 247 879 271 865 q 292 927 257 906 q 356 950 326 949 z "},"1":{"ha":694,"x_min":251,"x_max":444,"o":"m 357 946 q 407 899 400 946 q 434 747 428 839 q 440 592 440 656 q 425 263 444 490 q 319 10 406 36 q 264 47 276 13 q 253 119 251 82 q 279 407 258 264 q 310 765 301 585 q 319 918 308 843 q 357 946 322 951 z "},"+":{"ha":703,"x_min":42,"x_max":657,"o":"m 336 747 q 372 753 353 754 q 417 735 399 753 q 461 488 449 615 q 582 490 522 489 q 628 487 603 492 q 657 458 654 482 q 570 397 647 422 q 468 367 493 371 q 461 192 464 279 q 451 88 463 149 q 383 22 440 28 q 308 94 315 28 q 301 211 300 160 q 297 364 299 288 q 158 375 257 363 q 47 431 60 388 q 68 464 42 458 q 313 486 190 488 q 317 613 313 529 q 336 747 321 696 z "}," ":{"ha":411,"x_min":0,"x_max":0,"o":""},"，":{"ha":1389,"x_min":300,"x_max":472,"o":"m 328 198 q 375 209 350 211 q 472 82 469 199 q 436 -27 471 30 q 356 -90 402 -85 q 311 -51 315 -94 q 350 62 331 19 l 342 71 q 303 136 301 82 q 326 198 301 173 l 328 198 z "},"为":{"ha":1389,"x_min":161,"x_max":1247,"o":"m 735 1135 q 797 1067 792 1126 q 778 807 800 936 l 778 804 q 823 792 783 796 q 876 788 863 789 q 1151 724 1057 781 q 1244 476 1244 667 q 1204 83 1247 276 q 1008 -92 1169 -78 q 863 -56 935 -92 q 763 49 792 -21 q 788 58 772 63 q 956 42 872 50 q 1063 237 1043 63 q 1079 493 1083 411 q 1060 586 1085 544 q 911 641 1010 635 q 747 646 813 647 q 700 457 722 553 q 747 450 724 456 q 899 423 803 446 q 1007 335 996 400 q 951 268 1007 278 q 799 306 878 272 q 665 344 719 340 l 663 343 q 530 76 625 246 q 328 -112 435 -94 q 250 -50 258 -118 q 304 39 260 3 q 600 651 533 304 q 256 638 429 635 q 197 642 231 636 q 161 681 164 647 q 396 762 190 747 q 638 806 601 776 q 673 976 647 853 q 711 1125 699 1099 q 735 1135 721 1135 m 304 1006 q 442 993 349 1006 q 569 961 535 981 q 599 907 597 942 q 528 846 593 843 q 363 873 465 844 q 250 971 261 901 q 304 1006 256 1017 z "},"乐":{"ha":1389,"x_min":196,"x_max":1210,"o":"m 1028 1131 q 1086 1103 1075 1140 q 815 940 1057 969 q 458 917 572 911 q 413 675 421 799 q 475 545 415 589 q 615 501 535 501 q 661 504 631 500 q 694 525 692 508 l 693 535 q 681 708 685 569 q 676 879 676 846 l 711 879 q 764 850 749 885 q 810 707 792 797 q 846 554 829 617 l 849 553 q 922 597 871 557 q 979 657 972 636 q 893 763 943 714 q 921 778 897 774 q 956 783 944 783 q 1072 742 1018 782 q 1129 636 1126 701 q 1124 576 1132 606 q 857 374 1031 424 q 850 67 865 268 q 690 -157 835 -135 q 543 -86 610 -153 q 472 61 476 -19 q 475 74 472 68 q 563 35 503 68 q 653 -1 622 3 l 663 3 q 692 176 686 53 q 697 349 697 300 q 503 361 599 347 q 401 174 478 307 q 264 24 324 40 q 199 88 196 21 q 282 255 207 164 q 408 399 357 346 q 308 496 344 449 q 269 631 271 543 q 310 817 275 731 q 350 957 344 903 q 367 1004 353 983 q 430 1027 383 1024 q 500 1031 476 1031 q 949 1114 731 1039 q 1028 1131 986 1129 m 993 364 q 1140 244 1082 354 q 1200 51 1197 135 q 1143 -32 1210 -22 q 1046 63 1065 -21 l 983 225 q 946 344 957 283 q 993 364 957 372 z "},"今":{"ha":1389,"x_min":96,"x_max":1335,"o":"m 657 -67 q 795 120 674 -1 q 933 313 917 242 q 878 344 919 346 l 778 344 q 408 339 592 342 q 348 344 383 338 q 308 381 313 350 q 531 461 332 442 q 813 479 729 481 q 997 460 906 485 q 1094 319 1088 435 q 1028 135 1088 219 q 894 -23 989 78 q 740 -135 800 -124 q 657 -67 668 -136 m 96 522 q 117 582 97 556 q 407 855 193 679 q 738 1108 621 1031 l 736 1108 q 782 1119 758 1118 q 828 1081 826 1122 q 789 1006 810 1044 q 1097 790 885 929 q 1335 540 1310 651 q 1265 485 1328 481 q 1199 501 1231 485 l 1200 501 q 697 931 931 696 q 378 628 542 774 q 274 531 342 592 q 157 464 206 471 q 124 469 139 463 l 125 469 q 96 522 99 490 m 536 719 q 540 735 536 728 q 737 697 622 735 q 863 569 851 660 q 854 533 863 550 l 854 535 q 817 510 843 511 q 651 586 754 515 q 536 719 547 657 z "},"你":{"ha":1389,"x_min":38,"x_max":1356,"o":"m 715 1131 q 736 1126 726 1128 q 757 1082 757 1110 q 738 943 747 1011 q 747 931 736 932 q 857 949 803 936 q 1090 967 974 965 q 1272 947 1193 972 q 1356 797 1351 922 q 1297 615 1353 719 q 1158 500 1242 510 q 1097 567 1094 504 q 1148 694 1104 631 q 1197 800 1192 758 q 1121 834 1189 832 q 1024 833 1053 836 q 701 813 863 831 q 653 642 678 728 q 557 529 643 546 q 494 589 497 528 q 576 891 501 678 q 715 1131 650 1104 m 513 1114 q 543 1083 546 1114 q 485 961 538 1038 q 408 850 432 885 q 421 504 424 678 q 419 244 421 438 q 408 1 417 51 q 354 -53 399 -44 q 283 11 292 -47 q 278 118 274 69 q 293 560 278 339 q 300 667 299 613 q 299 678 300 671 q 203 555 251 635 q 89 467 156 475 q 39 518 38 465 q 76 635 42 581 q 250 876 129 719 q 443 1089 371 1032 q 513 1114 475 1113 m 882 729 q 921 750 893 753 q 963 739 944 751 q 1007 471 999 681 q 1014 182 1015 261 q 1006 -6 1019 103 q 894 -125 993 -114 q 735 21 754 -115 q 751 44 732 43 q 832 26 789 36 q 853 50 851 29 q 859 214 856 76 q 864 390 863 351 q 882 728 861 560 l 882 729 m 1100 489 q 1251 338 1179 474 q 1329 121 1324 203 q 1276 58 1332 63 q 1185 119 1215 64 q 1110 285 1153 172 q 1063 454 1067 397 q 1100 489 1065 489 m 706 536 q 749 488 756 539 q 711 260 749 415 q 608 86 674 104 q 554 168 549 101 q 594 381 554 240 q 706 536 635 521 z "},"值":{"ha":1389,"x_min":50,"x_max":1344,"o":"m 446 -32 q 490 11 450 -4 q 560 25 531 26 q 579 669 563 347 q 536 708 547 681 q 652 783 551 772 q 761 851 753 793 q 625 862 717 861 q 522 911 533 863 q 654 973 538 968 q 811 992 771 978 l 810 992 q 850 1057 829 1022 q 910 1094 871 1092 q 952 1060 946 1092 q 956 999 958 1028 q 1126 1001 1042 1001 l 1232 1001 q 1272 939 1278 989 q 1084 862 1249 851 q 892 825 919 872 q 925 817 907 817 q 1092 772 997 807 q 1218 667 1186 738 q 1233 545 1229 626 q 1236 419 1236 464 q 1215 63 1235 242 q 1296 51 1251 63 q 1344 1 1340 40 q 1243 -86 1339 -90 q 818 -92 1031 -96 l 679 -92 q 549 -84 640 -93 q 446 -32 457 -75 m 269 93 q 276 535 274 314 q 272 610 276 572 q 205 508 250 574 q 115 435 160 442 q 50 481 63 432 q 89 592 54 542 q 263 838 142 669 q 457 1074 383 1007 l 456 1074 q 475 1078 465 1078 q 506 1042 507 1075 q 456 901 501 982 q 378 765 410 819 q 402 497 396 699 q 408 203 408 296 q 408 67 408 165 q 403 -57 407 -31 q 339 -100 386 -99 q 270 -25 275 -93 q 269 93 265 43 m 1061 60 q 1074 244 1060 139 q 1092 439 1089 349 q 1035 643 1094 597 q 821 683 975 689 q 755 681 804 683 q 692 675 706 678 q 686 658 685 669 q 692 594 688 626 q 918 611 806 606 q 1028 604 974 610 q 1056 539 1060 581 q 997 493 1050 496 q 908 493 944 490 q 701 499 804 497 l 701 422 q 906 433 803 438 q 1026 428 967 433 l 1025 428 q 1053 372 1054 407 q 1033 332 1053 349 q 890 318 999 315 q 732 322 782 321 l 707 321 q 704 239 706 281 l 717 239 q 956 251 836 246 l 1000 251 q 1050 194 1049 244 q 999 140 1046 150 q 917 132 953 131 q 711 144 813 139 q 707 39 711 93 q 1061 60 879 46 z "},"只":{"ha":1389,"x_min":219,"x_max":1189,"o":"m 426 419 q 289 697 286 521 q 310 872 300 796 q 290 894 307 888 q 271 921 274 900 q 300 969 275 950 l 299 969 q 495 1026 379 1006 q 699 1046 611 1046 q 1006 984 846 1049 q 1178 750 1165 919 q 1078 528 1172 625 q 868 393 985 431 q 738 369 814 378 q 606 360 663 360 q 512 384 571 363 q 419 422 453 406 l 426 419 m 1006 728 q 1011 756 1011 740 q 926 865 1004 825 q 785 913 849 906 q 700 914 743 915 q 553 910 646 914 q 414 894 461 907 l 414 864 q 424 714 413 797 q 482 579 435 631 q 629 510 544 519 q 718 517 674 507 q 875 602 793 542 q 1006 725 957 663 l 1006 728 m 871 317 q 904 325 886 326 q 946 317 926 325 q 1094 160 1007 285 q 1189 -31 1181 36 q 1161 -87 1188 -65 l 1163 -87 q 1126 -94 1146 -96 q 965 74 1038 -78 q 871 317 892 225 m 479 324 q 524 289 522 328 q 485 158 521 233 q 419 36 449 83 l 419 38 q 366 -48 401 1 q 288 -101 331 -97 q 219 -42 229 -96 q 303 138 228 21 q 425 306 378 256 q 479 324 449 325 z "},"天":{"ha":1272,"x_min":110,"x_max":1186,"o":"m 563 869 q 387 887 518 886 q 239 942 256 888 q 271 993 242 976 q 519 1025 329 1013 q 789 1038 710 1038 q 942 1029 844 1040 q 1050 958 1039 1018 q 965 880 1043 885 q 832 881 888 875 l 688 882 q 676 556 692 719 q 910 553 793 554 q 1063 552 953 556 q 1186 501 1172 549 l 1186 489 q 1174 446 1186 465 q 1067 419 1146 424 q 953 415 989 415 l 744 404 q 890 208 811 306 q 1074 50 968 111 q 1161 -44 1147 26 q 1092 -108 1158 -111 q 817 68 946 -93 q 638 357 689 229 q 497 70 600 222 q 242 -94 393 -82 q 151 -78 194 -97 l 153 -78 q 124 11 110 -47 q 282 72 213 36 q 403 190 351 107 q 450 290 419 218 q 483 389 481 361 q 453 404 475 406 q 289 410 388 411 q 136 429 190 408 l 138 429 q 110 468 114 443 q 147 519 113 504 l 146 519 q 288 540 185 533 q 438 547 392 547 q 483 547 454 546 q 525 561 513 547 q 547 701 531 582 q 565 856 563 821 q 563 869 565 863 z "},"姓":{"ha":1389,"x_min":60,"x_max":1368,"o":"m 603 17 q 632 53 606 44 q 775 76 686 68 q 921 83 864 85 l 921 193 q 917 301 924 247 q 904 318 917 317 q 779 336 858 324 q 682 394 700 349 q 787 449 703 439 q 913 463 871 460 q 921 611 924 536 q 732 643 828 618 q 629 783 636 668 q 669 911 632 844 q 750 1022 707 978 l 761 1024 q 800 1019 781 1022 q 817 986 817 1008 q 794 899 814 942 q 772 813 775 856 q 835 765 778 767 q 926 765 892 763 q 963 1064 929 915 q 992 1081 974 1079 q 1049 950 1036 1067 q 1065 788 1063 833 q 1208 786 1138 782 l 1294 786 q 1333 729 1333 772 q 1224 642 1322 661 q 1068 621 1125 622 q 1074 472 1068 547 q 1217 463 1131 474 q 1311 392 1303 451 q 1213 319 1301 326 q 1074 313 1124 311 q 1071 96 1067 204 q 1240 90 1125 99 q 1368 26 1354 81 q 1292 -49 1365 -44 q 963 -58 1128 -62 l 881 -58 q 724 -49 832 -61 q 603 17 615 -36 m 200 14 q 215 61 201 31 q 238 107 229 92 l 238 106 q 263 157 257 129 q 218 258 257 172 q 168 389 179 344 q 165 461 164 425 q 181 651 163 557 q 186 683 186 668 q 115 700 164 688 q 60 739 65 713 q 64 753 61 746 l 64 751 q 147 788 89 779 q 239 811 206 797 q 310 944 265 865 q 417 1031 356 1022 q 450 1003 450 1032 q 428 910 449 965 q 393 822 407 854 q 419 810 403 808 q 571 762 510 800 q 635 624 632 724 q 575 403 629 517 q 479 190 521 290 l 479 192 q 476 188 476 190 q 529 124 483 171 q 582 36 575 76 q 525 -25 582 -22 q 442 0 481 -22 q 388 25 404 22 q 342 -14 369 21 q 260 -53 315 -49 q 200 14 193 -54 m 479 628 q 361 681 435 682 q 324 626 331 675 q 319 549 318 578 q 332 439 319 518 q 369 350 344 360 q 372 356 371 351 q 435 491 397 399 q 479 628 474 583 z "},"幸":{"ha":1389,"x_min":163,"x_max":1282,"o":"m 649 -175 q 631 -63 633 -149 q 631 56 629 22 q 378 63 564 54 q 169 131 193 72 q 322 180 188 169 q 499 190 457 190 l 635 197 q 638 294 638 246 q 435 301 578 292 q 276 364 293 310 q 354 412 285 403 q 458 424 424 421 q 418 600 444 514 l 413 600 l 411 601 q 274 612 374 601 q 163 663 175 622 q 215 711 172 703 q 409 733 286 729 q 615 743 532 736 q 618 847 619 796 q 442 859 572 846 q 296 925 313 872 q 445 980 313 971 q 621 986 578 989 q 631 1069 622 1021 q 675 1124 639 1118 q 736 1076 719 1119 q 751 994 753 1032 q 908 994 799 996 q 1069 978 1018 993 q 1111 925 1110 965 q 953 856 1093 865 q 763 850 814 847 l 763 744 q 894 747 829 747 q 1098 746 960 750 q 1282 701 1236 742 l 1282 685 q 1166 603 1271 610 q 1000 603 1061 597 q 972 525 996 589 q 946 447 949 461 q 976 439 949 439 q 1011 439 1003 439 q 1097 433 1050 442 q 1149 378 1144 425 q 1111 322 1147 340 l 1113 322 q 940 297 1051 300 q 757 292 828 294 q 763 200 757 246 q 978 198 824 200 q 1176 186 1132 196 q 1222 138 1217 175 q 1174 74 1224 88 q 971 58 1111 60 q 772 58 831 57 q 770 -92 776 3 q 692 -196 764 -186 q 647 -175 668 -192 l 649 -175 m 792 438 q 867 593 815 519 q 619 600 743 601 l 547 600 q 615 432 590 519 q 792 438 704 438 z "},"快":{"ha":1389,"x_min":51,"x_max":1365,"o":"m 821 467 q 838 629 828 494 q 850 793 849 764 q 669 786 760 788 q 617 788 649 785 q 582 818 585 792 q 700 885 594 864 q 847 911 806 907 l 836 1118 l 874 1115 q 949 1038 929 1106 q 978 922 969 971 q 1208 868 1114 913 q 1306 668 1301 824 q 1271 517 1306 589 l 1271 518 q 1257 488 1261 506 q 1326 469 1289 472 q 1365 411 1363 465 q 1274 337 1357 340 q 1129 338 1192 333 q 1037 338 1108 339 q 953 324 965 336 q 929 235 940 279 q 810 -3 896 115 q 589 -132 724 -122 q 526 -106 553 -131 q 521 -82 521 -94 q 606 24 529 -42 q 726 153 683 90 q 764 234 742 179 q 789 318 786 289 q 788 322 789 321 l 788 321 q 665 341 751 336 q 567 396 578 346 q 685 449 581 429 q 821 467 790 468 m 344 1090 q 357 1089 351 1090 q 428 885 418 1060 q 435 647 438 711 q 442 238 442 443 q 440 86 442 193 q 425 -60 438 -21 l 425 -58 q 372 -90 407 -87 q 307 -40 324 -86 q 300 111 300 -8 q 300 271 300 231 q 303 698 300 368 q 319 1083 307 1028 q 344 1090 331 1092 m 233 760 q 268 706 276 754 q 228 428 268 613 q 101 224 188 244 q 64 261 76 228 q 51 315 51 294 q 107 531 57 367 q 183 738 157 694 q 233 760 204 760 m 996 299 l 1026 299 q 1199 150 1094 283 q 1315 -56 1304 17 q 1265 -118 1318 -111 q 1211 -104 1236 -118 q 1078 61 1153 -67 q 996 260 1003 189 l 996 299 m 1025 789 q 983 651 989 774 q 979 476 978 528 q 993 474 986 474 q 1083 481 1039 475 q 1122 581 1094 508 q 1151 693 1149 654 q 1107 762 1149 736 q 1025 789 1065 788 m 668 504 q 600 460 643 465 q 501 570 543 471 q 456 725 458 669 q 488 761 456 758 q 600 658 549 751 q 668 504 651 565 z "},"日":{"ha":1389,"x_min":276,"x_max":1167,"o":"m 704 1003 q 1165 563 1167 1025 q 1045 147 1165 332 q 676 -50 925 -39 q 393 57 496 -47 q 289 340 290 161 q 381 570 290 508 q 632 629 472 632 q 825 603 717 632 q 943 474 933 575 q 886 426 935 428 q 758 456 825 431 q 611 486 690 482 q 484 456 543 488 q 421 349 425 425 q 487 175 424 257 q 644 88 550 93 q 915 247 826 97 q 1004 564 1004 397 q 967 743 1006 663 q 829 857 928 824 q 676 868 756 871 q 347 842 508 856 q 305 846 331 840 q 276 874 279 851 q 460 978 296 951 q 704 1003 625 1004 z "},"星":{"ha":1389,"x_min":213,"x_max":1246,"o":"m 540 1119 q 906 1094 686 1128 q 1149 879 1126 1060 q 1052 683 1143 761 q 853 576 961 604 q 775 529 796 574 l 775 517 l 776 515 q 785 475 779 494 l 797 475 q 1074 499 935 488 q 1167 447 1153 514 q 1096 374 1153 394 q 956 349 1065 365 q 810 331 846 332 q 799 307 796 324 q 853 282 807 271 q 1006 285 929 283 q 1096 265 1054 286 l 1094 265 q 1133 228 1121 251 q 1056 156 1126 167 q 933 149 985 146 q 852 146 894 150 q 806 97 810 142 l 806 35 l 983 31 q 1129 22 1025 32 q 1246 -36 1233 13 q 1194 -108 1240 -86 q 799 -119 997 -125 q 571 -122 685 -121 q 376 -117 521 -125 q 213 -47 231 -108 q 218 -21 213 -33 q 256 10 236 -4 q 458 24 342 24 q 656 26 574 25 l 656 128 q 503 134 613 125 q 379 192 393 143 q 389 221 381 208 l 389 219 q 540 263 438 267 q 656 294 643 258 q 599 322 650 322 q 522 319 547 322 q 349 335 460 317 q 226 431 239 353 q 283 543 231 525 q 394 610 336 561 q 325 676 367 636 q 279 756 283 717 q 376 909 285 878 q 571 936 468 940 q 778 913 643 938 q 932 815 913 888 q 939 790 931 801 q 1001 886 990 826 q 656 997 961 997 q 274 1019 351 997 q 251 1053 257 1033 q 320 1108 258 1094 q 418 1119 382 1121 l 540 1119 m 546 810 q 403 786 471 814 l 404 786 q 385 772 389 785 q 467 700 393 722 q 585 678 540 678 q 874 743 736 682 q 546 810 715 801 m 517 564 q 429 525 478 560 q 346 467 381 490 q 447 451 394 453 q 556 454 478 451 q 657 467 635 457 q 669 507 665 476 q 675 549 674 538 q 517 564 596 561 z "},"生":{"ha":1389,"x_min":192,"x_max":1275,"o":"m 696 1043 q 722 1056 706 1057 q 783 903 774 1038 q 790 731 792 768 q 1050 756 919 746 q 1163 744 1108 758 l 1161 744 q 1176 697 1178 724 q 1174 675 1176 686 l 1174 676 q 978 614 1113 638 q 788 586 844 590 l 788 438 q 1028 440 908 439 q 1110 432 1057 442 q 1169 388 1164 422 q 1157 340 1168 363 q 969 292 1118 303 q 788 282 819 282 l 788 67 q 1097 78 942 83 q 1240 60 1172 85 l 1239 60 q 1275 24 1264 47 q 1159 -47 1263 -28 q 1008 -67 1056 -65 q 1003 -68 1004 -65 q 557 -82 781 -72 q 355 -67 500 -83 q 192 0 210 -50 q 224 43 204 22 q 649 64 436 50 l 650 117 q 642 285 649 201 q 488 288 574 283 q 338 321 403 292 l 339 321 q 321 349 326 332 q 404 391 331 374 q 504 411 478 408 l 649 424 l 654 576 q 421 617 557 578 q 271 768 285 657 q 344 963 271 879 q 396 1003 363 994 q 439 985 428 1007 q 392 785 419 888 q 513 724 418 733 q 656 714 607 714 q 696 1044 663 882 l 696 1043 z "},"的":{"ha":1389,"x_min":106,"x_max":1326,"o":"m 857 1117 q 897 1088 893 1115 q 900 1031 901 1060 q 886 886 893 957 q 888 882 886 885 q 1019 892 954 888 q 1265 804 1203 892 q 1322 547 1326 717 q 1265 171 1325 407 q 1046 -90 1206 -65 q 910 -36 976 -87 q 838 88 843 15 q 847 101 838 99 q 925 77 882 99 q 997 53 968 56 q 1048 103 1021 58 q 1085 171 1075 149 q 1142 380 1117 251 q 1168 596 1167 508 q 1097 736 1171 688 l 1099 736 q 983 765 1054 760 q 860 769 911 771 q 815 624 847 724 q 756 490 782 525 q 683 467 726 460 q 628 138 688 321 q 400 -61 569 -44 q 188 47 268 -56 q 106 276 108 150 q 358 518 114 521 q 519 504 442 511 q 528 531 532 514 q 458 654 524 610 q 343 665 419 668 q 219 661 267 663 q 155 665 188 660 q 119 710 122 671 q 183 767 135 754 q 222 800 213 774 q 331 967 249 863 q 476 1083 413 1072 q 514 1033 515 1076 q 460 917 508 993 q 389 806 413 840 q 557 769 499 794 q 663 642 615 743 q 733 873 682 711 q 814 1090 785 1035 q 857 1117 828 1118 m 528 378 q 410 383 469 383 l 369 383 q 259 367 307 386 q 208 274 211 347 q 263 147 211 213 q 376 76 315 82 q 478 205 433 90 q 528 378 524 319 m 813 501 q 972 451 886 500 q 1067 324 1058 403 q 1001 268 1064 264 q 861 344 944 275 q 769 463 778 413 q 813 501 764 513 z "},"祝":{"ha":1389,"x_min":82,"x_max":1364,"o":"m 951 447 q 883 450 918 449 q 847 125 890 317 q 642 -86 803 -67 q 519 6 538 -92 q 553 19 529 22 q 685 121 640 40 q 740 293 710 174 q 772 467 769 413 q 760 488 771 481 q 690 561 726 513 q 643 650 654 610 q 639 736 636 692 q 656 904 646 822 q 642 915 643 913 q 613 943 618 921 q 674 1006 618 978 q 763 1040 731 1033 q 886 1047 825 1049 q 1242 969 1074 1051 l 1240 969 q 1301 806 1303 900 q 1233 603 1299 681 q 1065 465 1167 525 q 1080 238 1065 406 q 1143 50 1094 71 q 1308 74 1226 63 q 1364 24 1361 78 q 1276 -71 1356 -40 q 1139 -101 1197 -101 q 1117 -100 1128 -101 q 965 39 989 -71 q 949 258 942 149 q 951 447 949 353 m 1144 813 q 1060 911 1138 889 q 918 931 982 933 q 772 918 846 933 q 756 874 757 910 q 757 824 756 839 q 792 676 757 754 q 903 592 826 599 q 1050 674 964 599 q 1144 813 1136 750 m 317 279 q 232 213 281 246 q 132 176 183 179 q 83 231 82 179 q 97 278 83 257 q 197 378 142 332 q 348 544 240 421 q 468 717 456 667 q 467 724 468 721 q 274 730 411 726 q 121 774 138 733 q 143 814 122 799 q 433 849 286 849 q 550 843 492 844 q 622 719 621 803 q 572 580 618 650 q 482 458 526 510 q 511 442 496 447 l 510 442 q 658 303 599 388 l 658 304 q 669 263 668 285 q 617 225 663 221 q 450 313 521 242 q 453 108 451 211 q 447 -68 457 19 l 447 -67 q 390 -99 426 -96 q 322 -43 336 -96 q 317 126 317 -1 q 317 279 317 253 m 264 1015 q 260 1038 260 1026 q 276 1071 260 1060 q 496 1024 390 1064 l 494 1024 q 547 928 544 989 q 479 876 536 875 q 265 1017 358 926 l 264 1015 m 265 1014 l 263 1014 l 264 1015 l 265 1014 z "},"空":{"ha":1389,"x_min":149,"x_max":1289,"o":"m 196 -32 q 208 -4 197 -17 l 207 -4 q 416 26 271 13 q 625 39 561 39 q 631 292 629 165 q 467 299 579 288 q 342 364 356 311 q 410 413 360 406 q 694 435 514 432 q 992 438 874 439 q 801 732 863 563 q 843 765 806 768 q 958 694 893 758 q 1074 594 1024 629 q 1100 675 1082 611 q 1121 760 1118 739 q 952 813 1101 808 q 747 815 803 818 q 288 792 518 817 q 285 582 289 688 q 231 540 268 547 q 157 616 165 547 q 153 735 149 685 q 156 831 151 768 q 186 917 160 893 l 196 917 q 279 904 239 911 q 472 930 371 907 q 668 953 574 953 q 601 992 635 975 l 603 992 q 521 1046 561 1018 q 506 1090 507 1067 q 578 1124 522 1135 q 758 1083 674 1125 q 835 993 822 1057 q 846 968 833 976 q 880 965 854 967 q 915 963 906 964 q 1072 942 971 958 q 1219 903 1172 926 q 1285 754 1289 846 q 1256 615 1285 681 l 1256 617 q 1163 525 1222 558 q 1150 508 1150 521 q 1156 456 1153 483 l 1154 432 q 1063 392 1124 382 l 1063 367 q 1021 309 1058 319 q 943 299 983 299 q 764 289 854 290 q 786 44 776 167 q 997 43 860 43 q 1188 28 1133 43 q 1235 -31 1231 14 q 1163 -101 1226 -92 q 993 -103 1079 -107 q 615 -104 804 -104 q 385 -103 553 -108 q 196 -32 217 -97 m 288 513 q 493 753 375 646 l 492 753 q 518 760 506 760 q 569 708 565 756 q 476 531 543 638 q 335 413 408 424 q 274 467 282 417 q 290 519 276 496 l 288 513 z "},"罗":{"ha":1389,"x_min":193,"x_max":1256,"o":"m 672 103 q 572 200 642 139 q 493 297 503 261 q 553 315 519 315 q 687 267 624 311 q 813 196 750 222 q 896 280 840 222 q 958 367 951 338 q 769 425 939 413 q 524 438 600 438 q 418 304 489 390 q 292 208 347 218 q 228 258 233 203 q 265 351 231 311 q 478 590 365 478 q 293 671 372 624 q 210 847 214 718 q 215 917 213 883 q 193 978 204 958 q 242 1032 204 1017 q 744 1072 492 1072 q 1022 1063 886 1079 q 1176 998 1103 1049 q 1256 858 1250 947 q 1228 776 1254 826 q 1179 704 1203 725 q 913 618 1093 650 q 629 588 733 586 q 606 543 614 567 q 615 538 607 536 q 753 543 685 540 q 976 522 850 549 q 1114 376 1101 496 q 974 133 1103 249 q 735 -33 844 17 q 556 -94 665 -64 q 371 -128 446 -125 q 288 -67 304 -126 q 358 -7 303 -17 q 672 103 518 35 m 515 951 q 358 940 438 953 q 336 896 326 933 l 336 835 q 408 765 354 790 q 507 736 461 739 q 517 940 521 840 l 515 951 m 768 736 q 776 942 774 839 l 775 958 q 736 960 756 960 l 700 960 q 629 958 665 960 q 643 733 639 846 q 768 736 706 735 m 1103 867 q 1022 922 1094 903 q 915 942 949 942 q 900 928 896 944 q 897 750 904 839 q 1006 793 944 761 q 1103 861 1068 825 l 1103 867 z "},"耀":{"ha":1389,"x_min":67,"x_max":1340,"o":"m 676 -71 q 674 114 675 4 q 682 290 672 224 q 628 243 663 269 q 563 214 593 217 q 511 265 515 218 q 633 444 524 322 q 796 617 743 565 l 794 617 l 807 621 q 814 669 808 646 q 806 681 815 679 q 731 640 785 675 q 636 599 678 604 q 574 639 586 594 q 653 724 583 683 q 736 783 724 764 q 653 831 711 804 q 588 908 594 857 q 647 938 603 943 q 734 910 685 936 q 811 858 783 885 q 822 850 815 853 q 826 897 828 874 q 804 971 829 940 q 666 985 758 992 q 563 1029 574 979 q 642 1082 571 1071 q 749 1092 714 1093 q 925 1035 850 1097 q 1052 1094 968 1090 q 1200 1094 1136 1099 q 1218 1089 1210 1093 q 1308 973 1292 1057 q 1321 818 1324 889 q 1289 569 1322 692 l 1289 571 q 1239 553 1268 553 q 1178 600 1183 556 q 1181 689 1174 644 l 1169 689 q 1032 638 1106 646 q 975 643 1003 636 l 976 643 l 960 653 q 928 581 931 611 q 842 536 925 550 l 793 451 l 793 453 q 788 419 786 438 q 806 -29 793 196 q 922 10 853 3 q 999 36 992 17 q 997 61 999 49 q 967 94 1003 101 q 901 106 940 94 q 858 147 863 117 q 931 194 868 200 q 1003 217 994 189 q 924 239 993 231 q 844 290 854 247 q 925 335 854 340 q 1006 374 996 331 q 912 394 994 390 q 817 450 829 399 q 901 498 826 490 q 1003 504 975 506 q 983 593 985 547 q 988 622 983 608 l 988 621 q 1006 625 996 624 q 1075 607 1043 625 l 1074 607 q 1132 542 1107 578 l 1132 543 l 1143 515 q 1186 513 1165 517 q 1273 500 1247 510 q 1297 428 1299 490 l 1289 419 l 1290 419 q 1115 382 1207 385 q 1107 371 1108 379 q 1194 349 1118 344 q 1281 297 1269 353 q 1218 242 1275 254 q 1126 218 1161 231 q 1217 200 1163 204 q 1278 147 1272 196 q 1206 93 1269 93 q 1133 64 1143 93 q 1140 32 1135 47 q 1259 31 1186 36 q 1340 -32 1332 25 q 1276 -98 1335 -93 q 1169 -99 1218 -103 q 996 -97 1099 -100 q 829 -76 893 -93 l 831 -76 l 806 -49 q 747 -126 801 -111 q 676 -71 683 -132 m 75 -11 q 147 197 85 42 q 211 422 208 353 q 127 439 182 425 q 67 489 72 453 q 159 535 76 525 q 283 544 242 544 q 292 606 292 556 q 290 671 292 656 q 297 954 290 813 q 303 1010 297 979 q 338 1044 308 1042 q 390 993 388 1044 q 411 656 411 825 q 414 553 408 604 q 535 556 461 557 q 615 496 608 556 q 551 438 610 451 q 454 419 492 425 q 489 97 454 257 q 560 107 525 107 l 588 106 q 603 75 604 94 q 563 -15 601 26 q 475 -60 525 -57 q 368 1 406 -57 l 368 0 q 350 219 347 67 q 354 419 353 371 q 310 411 332 415 q 274 135 308 322 q 143 -74 239 -51 q 75 -11 82 -71 m 104 833 q 139 861 107 864 q 226 792 196 846 l 226 793 q 263 622 258 711 q 261 596 263 610 l 261 597 q 215 578 243 578 q 196 581 206 578 l 197 581 q 131 699 156 626 q 104 833 106 772 m 536 893 q 574 874 560 893 q 508 607 567 735 q 474 601 492 601 q 450 604 461 601 l 451 604 q 433 653 431 625 q 456 764 435 690 q 494 871 476 838 q 536 893 510 893 m 971 994 q 954 976 953 996 q 958 947 954 965 q 972 935 961 928 q 1169 878 1078 928 q 1186 861 1176 867 q 1192 876 1192 868 q 1094 986 1203 990 q 971 994 1033 993 m 1113 796 q 1038 827 1081 800 q 967 874 994 854 q 961 718 960 796 q 1103 785 1031 756 l 1113 796 z "},"运":{"ha":1389,"x_min":97,"x_max":1321,"o":"m 269 772 q 369 764 321 775 q 440 704 413 746 q 479 657 467 663 l 496 658 q 1117 697 806 697 q 1244 695 1174 701 q 1321 621 1314 689 q 1300 578 1321 596 q 1178 559 1271 561 q 1050 557 1086 557 q 814 543 931 554 q 725 415 788 507 q 654 275 663 322 q 672 257 653 256 q 853 290 719 260 q 1011 335 986 319 q 1013 339 1013 338 q 978 478 996 386 q 1019 481 999 481 q 1160 381 1089 472 q 1238 218 1232 289 q 1190 156 1243 163 q 1086 207 1132 165 q 706 113 904 124 q 568 143 624 111 q 510 263 513 175 q 559 415 513 346 q 657 547 606 485 q 464 568 560 554 q 351 167 425 364 q 563 85 446 118 q 786 50 681 51 q 997 78 893 54 q 1206 107 1101 103 q 1279 50 1281 121 q 1082 -64 1258 -33 q 821 -93 906 -94 q 354 35 568 -100 l 340 43 l 342 43 q 318 56 331 50 q 308 60 311 58 q 266 -8 293 26 q 201 -44 239 -42 q 138 18 142 -42 q 228 312 149 132 q 319 604 308 492 q 208 657 306 665 q 97 708 111 649 q 167 764 104 754 q 269 772 231 774 m 890 1043 q 1012 1041 925 1043 q 1126 1029 1099 1039 q 1163 975 1160 1013 q 1079 910 1154 917 q 958 908 1004 904 q 745 915 892 906 q 582 982 599 925 q 715 1039 596 1032 q 890 1043 833 1046 m 186 1021 q 332 993 243 1021 q 431 903 421 965 q 376 843 433 846 q 236 883 324 844 q 139 976 149 921 q 186 1021 138 1025 z "},"闪":{"ha":1389,"x_min":204,"x_max":1244,"o":"m 871 6 q 863 43 864 24 q 876 56 864 56 q 1019 14 949 35 q 1051 64 1044 29 q 1083 327 1074 150 q 1092 597 1092 504 q 1083 782 1096 675 q 982 914 1069 889 q 586 922 785 925 q 543 956 549 921 q 565 1001 544 983 l 564 1001 q 972 1058 763 1061 q 1133 999 1057 1056 q 1228 857 1210 943 q 1238 539 1244 700 q 1232 264 1238 433 q 1208 -1 1226 94 q 1153 -90 1196 -50 q 1060 -132 1111 -129 q 953 -84 1008 -129 q 872 6 897 -39 l 871 6 m 715 818 q 767 765 769 818 q 743 564 756 664 q 769 538 749 543 l 768 538 q 1014 286 906 426 l 1014 288 q 1038 208 1036 250 q 981 146 1040 147 q 828 267 910 158 q 708 435 746 375 q 685 397 690 421 q 594 245 653 329 q 482 107 536 161 l 483 107 q 413 101 449 100 q 372 153 378 117 q 419 256 381 211 q 615 644 542 438 q 650 746 625 681 q 715 818 675 811 m 208 -44 q 206 85 206 21 l 206 383 q 206 596 204 474 q 226 801 208 718 q 265 850 231 842 q 318 799 306 846 q 331 719 331 753 q 344 131 350 425 q 342 -7 347 82 q 283 -106 338 -96 q 208 -44 233 -94 m 238 1004 q 254 1039 238 1026 l 253 1039 l 269 1040 q 419 1003 335 1040 q 513 896 504 967 q 456 836 510 840 q 325 897 404 840 q 238 1004 246 954 m 872 4 l 869 4 l 871 6 l 872 4 z "}}}
